<?xml version="1.0" encoding="UTF-8" standalone="no"?> <svg id="Line_Gradient" data-name="Line Gradient" xmlns="http://www.w3.org/2000/svg" xmlns:xlink="http://www.w3.org/1999/xlink" viewBox="0 0 64 64"><defs><style>.cls-1{fill:url(#linear-gradient);}</style><linearGradient id="linear-gradient" x1="6.22437" y1="31.97647" x2="57.77559" y2="31.97647" gradientUnits="userSpaceOnUse"><stop offset="0" stop-color="#ffde00"/><stop offset="1" stop-color="#fd5900"/></linearGradient></defs><title>1</title><path class="cls-1" d="M6.22461,43.00977a5.13109,5.13109,0,0,0,9.75588,2.18071L27.28705,52.8761a5.12136,5.12136,0,0,0-.41644,1.995c.20983,6.76474,10.04092,6.7883,10.25879-.00011a5.11648,5.11648,0,0,0-.41688-1.99458l11.31409-7.69061a5.11585,5.11585,0,1,0,4.23767-7.2704l1.015-13.7382a5.11541,5.11541,0,1,0-4.70878-8.15074l-11.60781-5.609a5.12773,5.12773,0,1,0-9.92574.00029l-11.61,5.60982a5.11422,5.11422,0,1,0-4.70618,8.14966l1.015,13.73858A5.10269,5.10269,0,0,0,6.22461,43.00977Zm5.12939,3.1289a3.12959,3.12959,0,0,1,.0001-6.25879A3.12959,3.12959,0,0,1,11.354,46.13867ZM31,14.14716v3.96417H16.37885c-.01947-.0979-.04108-.1947-.06635-.29047L27.91711,12.2135A5.13879,5.13879,0,0,0,31,14.14716Zm5.085-1.93262,11.60321,5.60669c-.02539.09576-.04687.19256-.0664.2901H33v-3.964A5.13816,5.13816,0,0,0,36.085,12.21454ZM51.28369,24.04968l-1.06842,14.4621a5.066,5.066,0,0,0-1.37543,1.084l-5.15051-2.97065L50.998,23.96289C51.09222,23.995,51.18756,24.02313,51.28369,24.04968ZM33,49.86169V36.10583a5.10114,5.10114,0,0,0,2.87476-1.67926l5.08209,2.93122-7.31531,12.673A5.13244,5.13244,0,0,0,33,49.86169Zm-2.64154.16913-7.31531-12.673L28.1264,34.4259A5.10079,5.10079,0,0,0,31,36.10583V49.86169A5.13518,5.13518,0,0,0,30.35846,50.03082ZM16.17822,41.31726l5.1322-2.96008,7.31489,12.67236c-.0727.06354-.1424.12677-.21137.19421L16.47955,43.11151A4.93135,4.93135,0,0,0,16.17822,41.31726Zm-.98041-18.82971L27.17133,29.398a4.88328,4.88328,0,0,0-.03089,3.288l-5.097,2.93976-7.3133-12.67035A5.07093,5.07093,0,0,0,15.19781,22.48755ZM31,20.11133v5.95642a5.15419,5.15419,0,0,0-2.81244,1.60718L16.19769,20.75507a5.12629,5.12629,0,0,0,.17408-.64374Zm16.62817,0a5.12416,5.12416,0,0,0,.174.6438l-11.989,6.91937A5.1533,5.1533,0,0,0,33,26.06769V20.11133ZM49.26953,22.956l-7.313,12.66974-5.09735-2.93994a4.92608,4.92608,0,0,0-.0309-3.28754l11.97365-6.91052A5.07627,5.07627,0,0,0,49.26953,22.956ZM32,34.21582a3.12963,3.12963,0,0,1,.0001-6.25879A3.12963,3.12963,0,0,1,32,34.21582Zm3.379,16.80634,7.31061-12.665,5.13244,2.9602a4.93907,4.93907,0,0,0-.30188,1.79438L35.59277,51.21918C35.52338,51.15137,35.45221,51.08606,35.379,51.02216ZM13.00189,23.96259l7.30878,12.66259-5.15051,2.97065a5.04831,5.04831,0,0,0-1.37555-1.0857l-1.0683-14.461C12.81268,24.02271,12.908,23.99451,13.00189,23.96259ZM32,58a3.12958,3.12958,0,0,1,.0001-6.25878A3.12958,3.12958,0,0,1,32,58ZM55.77539,43.00977a3.12933,3.12933,0,0,1-6.25829-.0001A3.12933,3.12933,0,0,1,55.77539,43.00977ZM52.646,15.98242a3.12959,3.12959,0,0,1-.0001,6.25879A3.12959,3.12959,0,0,1,52.646,15.98242ZM32,6a3.12959,3.12959,0,0,1-.00009,6.25879A3.12959,3.12959,0,0,1,32,6ZM8.22461,19.11133a3.12936,3.12936,0,0,1,6.2583.00009A3.12936,3.12936,0,0,1,8.22461,19.11133Z"/></svg>